<svg aria-hidden="true" style="position:absolute;width:0;height:0" xmlns="http://www.w3.org/2000/svg" overflow="hidden"><defs><symbol id="icon-users" viewBox="0 0 32 32"><path d="M30.25 25.75h-3v-3a.3.3 0 00-.3-.3h-1.8a.3.3 0 00-.3.3v3h-3a.3.3 0 00-.3.3v1.8a.3.3 0 00.3.3h3v3a.3.3 0 00.3.3h1.8a.3.3 0 00.3-.3v-3h3a.3.3 0 00.3-.3v-1.8a.3.3 0 00-.3-.3zM10.806 15.49a9.547 9.547 0 01.108-2.734.302.302 0 00-.169-.33 4.753 4.753 0 01-1.384-.941 4.792 4.792 0 01-.091-6.788 4.773 4.773 0 013.495-1.451 4.796 4.796 0 013.99 2.205.3.3 0 00.349.12 9.283 9.283 0 012.074-.465.3.3 0 00.236-.435A7.514 7.514 0 0012.825.55c-4.155-.064-7.62 3.345-7.62 7.5a7.485 7.485 0 002.782 5.831 11.293 11.293 0 00-3.244 2.265 11.153 11.153 0 00-3.292 7.65.292.292 0 00.086.217c.028.029.061.052.098.067s.077.024.117.024h2.104a.3.3 0 00.3-.289 8.473 8.473 0 012.501-5.756 8.465 8.465 0 013.926-2.239.306.306 0 00.221-.33zM27.7 14.5A7.503 7.503 0 0020.316 7c-4.155-.064-7.616 3.345-7.616 7.5a7.495 7.495 0 002.783 5.831 11.284 11.284 0 00-3.24 2.265 11.156 11.156 0 00-3.293 7.646.292.292 0 00.086.217.3.3 0 00.215.091h2.1a.3.3 0 00.3-.289 8.477 8.477 0 012.501-5.756A8.492 8.492 0 0120.201 22a7.5 7.5 0 007.5-7.5zm-4.107 3.394c-.907.908-2.111 1.406-3.394 1.406s-2.486-.499-3.394-1.406a4.76 4.76 0 01-1.406-3.443A4.804 4.804 0 0120.15 9.7a4.827 4.827 0 013.412 1.373c.93.911 1.44 2.13 1.44 3.428a4.788 4.788 0 01-1.41 3.394z"/></symbol><symbol id="icon-chat" viewBox="0 0 32 32"><path d="M14.364 16a1.636 1.636 0 103.271.001A1.636 1.636 0 0014.364 16zm6.818 0a1.636 1.636 0 103.271.001A1.636 1.636 0 0021.182 16zM7.546 16a1.636 1.636 0 103.271.001A1.636 1.636 0 007.546 16zm22.541-5.918a15.261 15.261 0 00-3.283-4.885 15.147 15.147 0 00-4.885-3.283A15.19 15.19 0 0016.001.728h-.068a15.226 15.226 0 00-10.79 4.514 15.123 15.123 0 00-3.245 4.868 15.268 15.268 0 00-1.169 5.962c.012 2.368.572 4.7 1.636 6.815v5.182a1.568 1.568 0 001.568 1.568h5.185a15.309 15.309 0 006.815 1.636h.072c2.042 0 4.023-.395 5.888-1.169a15.142 15.142 0 004.868-3.246 15.127 15.127 0 003.29-4.841 15.226 15.226 0 001.224-5.949 15.221 15.221 0 00-1.186-5.986zm-5.151 14.932a12.614 12.614 0 01-8.935 3.668h-.058a12.726 12.726 0 01-5.901-1.483l-.286-.153h-4.8v-4.8l-.153-.286a12.729 12.729 0 01-1.483-5.901c-.014-3.399 1.285-6.59 3.668-8.993a12.59 12.59 0 018.959-3.747h.058c1.705 0 3.358.331 4.916.985a12.628 12.628 0 014.057 2.727 12.63 12.63 0 013.712 9.027 12.633 12.633 0 01-3.753 8.956z"/></symbol><symbol id="icon-bell" viewBox="0 0 32 32"><path d="M26.364 24.727h-.818V13.136c0-4.81-3.556-8.785-8.182-9.447V2.363a1.364 1.364 0 10-2.728 0v1.326c-4.626.661-8.182 4.636-8.182 9.447v11.591h-.818a1.09 1.09 0 00-1.091 1.091v1.091c0 .15.123.273.273.273h7.364C12.182 29.289 13.893 31 16 31s3.818-1.711 3.818-3.818h7.364c.15 0 .273-.123.273-.273v-1.091a1.09 1.09 0 00-1.091-1.091zM16 28.818a1.637 1.637 0 01-1.636-1.636h3.273c0 .903-.733 1.636-1.636 1.636zm-7.091-4.091V13.136c0-1.895.736-3.675 2.076-5.015S14.104 6.045 16 6.045c1.895 0 3.675.736 5.015 2.076s2.076 3.119 2.076 5.015v11.591H8.909z"/></symbol><symbol id="icon-info" viewBox="0 0 32 32"><path d="M16 2C8.269 2 2 8.269 2 16s6.269 14 14 14 14-6.269 14-14S23.731 2 16 2zm0 25.625C9.581 27.625 4.375 22.419 4.375 16S9.581 4.375 16 4.375 27.625 9.581 27.625 16 22.419 27.625 16 27.625z"/><path d="M14.5 10.5A1.503 1.503 0 0016 12a1.503 1.503 0 001.5-1.5A1.503 1.503 0 0016 9a1.503 1.503 0 00-1.5 1.5zm2.25 3.5h-1.5a.251.251 0 00-.25.25v8.5c0 .137.113.25.25.25h1.5c.137 0 .25-.113.25-.25v-8.5a.251.251 0 00-.25-.25z"/></symbol><symbol id="icon-dropdown" viewBox="0 0 32 32"><path d="M29.682 7.167H2.315c-.821 0-1.279.867-.771 1.458l13.683 15.867c.392.454 1.146.454 1.542 0L30.452 8.625c.508-.592.05-1.458-.771-1.458z"/></symbol></defs></svg>