<svg width="14" height="14" xmlns="http://www.w3.org/2000/svg"><path d="M12.644 8.555l-.896-.766a4.915 4.915 0 000-1.58l.896-.766a.437.437 0 00.127-.481l-.012-.036a6.067 6.067 0 00-1.09-1.885l-.025-.029a.439.439 0 00-.48-.13l-1.111.395A4.818 4.818 0 008.69 2.49l-.215-1.162a.438.438 0 00-.352-.352L8.086.97a6.177 6.177 0 00-2.174 0l-.037.006a.438.438 0 00-.353.352l-.216 1.167a4.81 4.81 0 00-1.353.785l-1.12-.398a.437.437 0 00-.48.13l-.025.029a6.098 6.098 0 00-1.09 1.885l-.012.036a.44.44 0 00.128.481l.906.774a4.81 4.81 0 000 1.561l-.906.774a.438.438 0 00-.128.481l.013.036a6.063 6.063 0 001.09 1.885l.024.029a.438.438 0 00.48.13l1.12-.398c.407.335.862.6 1.353.785l.216 1.167a.438.438 0 00.353.352l.037.006c.719.13 1.455.13 2.174 0l.037-.006a.439.439 0 00.352-.352l.215-1.162a4.783 4.783 0 001.363-.787l1.111.395a.438.438 0 00.48-.13l.025-.029a6.098 6.098 0 001.09-1.885l.012-.036a.436.436 0 00-.127-.478zM10.778 6.37a3.867 3.867 0 010 1.26l-.09.549 1.02.873a5.06 5.06 0 01-.582 1.007l-1.268-.45-.43.353a3.82 3.82 0 01-1.084.626l-.52.195-.246 1.326a5.155 5.155 0 01-1.162 0l-.244-1.329-.517-.198a3.825 3.825 0 01-1.076-.625l-.43-.354-1.276.454a5.168 5.168 0 01-.583-1.006l1.032-.882-.089-.547a3.937 3.937 0 010-1.244l.09-.547L2.29 4.95a5.06 5.06 0 01.583-1.006l1.276.454.43-.354a3.825 3.825 0 011.076-.625l.518-.195.245-1.33a5.161 5.161 0 011.162 0l.244 1.327.521.195a3.84 3.84 0 011.085.627l.429.352 1.269-.45c.232.314.426.651.582 1.007l-1.021.873.089.546zM7 4.457A2.406 2.406 0 107 9.27a2.406 2.406 0 000-4.813zm1.083 3.49A1.526 1.526 0 017 8.394a1.526 1.526 0 01-1.415-.945 1.526 1.526 0 01.332-1.669A1.52 1.52 0 017 5.332c.409 0 .793.159 1.083.449a1.526 1.526 0 01.448 1.083c0 .408-.16.792-.448 1.082z" fill="#8C8C8C"/></svg>