<svg aria-hidden="true" style="position:absolute;width:0;height:0" xmlns="http://www.w3.org/2000/svg" overflow="hidden"><defs><symbol id="icon-users" viewBox="0 0 32 32"><path d="M30.25 25.75h-3v-3a.3.3 0 00-.3-.3h-1.8a.3.3 0 00-.3.3v3h-3a.3.3 0 00-.3.3v1.8a.3.3 0 00.3.3h3v3a.3.3 0 00.3.3h1.8a.3.3 0 00.3-.3v-3h3a.3.3 0 00.3-.3v-1.8a.3.3 0 00-.3-.3zM10.806 15.49a9.547 9.547 0 01.108-2.734.302.302 0 00-.169-.33 4.753 4.753 0 01-1.384-.941 4.792 4.792 0 01-.091-6.788 4.773 4.773 0 013.495-1.451 4.796 4.796 0 013.99 2.205.3.3 0 00.349.12 9.283 9.283 0 012.074-.465.3.3 0 00.236-.435A7.514 7.514 0 0012.825.55c-4.155-.064-7.62 3.345-7.62 7.5a7.485 7.485 0 002.782 5.831 11.293 11.293 0 00-3.244 2.265 11.153 11.153 0 00-3.292 7.65.292.292 0 00.086.217c.028.029.061.052.098.067s.077.024.117.024h2.104a.3.3 0 00.3-.289 8.473 8.473 0 012.501-5.756 8.465 8.465 0 013.926-2.239.306.306 0 00.221-.33zM27.7 14.5A7.503 7.503 0 0020.316 7c-4.155-.064-7.616 3.345-7.616 7.5a7.495 7.495 0 002.783 5.831 11.284 11.284 0 00-3.24 2.265 11.156 11.156 0 00-3.293 7.646.292.292 0 00.086.217.3.3 0 00.215.091h2.1a.3.3 0 00.3-.289 8.477 8.477 0 012.501-5.756A8.492 8.492 0 0120.201 22a7.5 7.5 0 007.5-7.5zm-4.107 3.394c-.907.908-2.111 1.406-3.394 1.406s-2.486-.499-3.394-1.406a4.76 4.76 0 01-1.406-3.443A4.804 4.804 0 0120.15 9.7a4.827 4.827 0 013.412 1.373c.93.911 1.44 2.13 1.44 3.428a4.788 4.788 0 01-1.41 3.394z"/></symbol><symbol id="icon-chat" viewBox="0 0 32 32"><path fill="var(--background, #fff)" d="M24.229 7.778a11.584 11.584 0 00-8.225-3.403h-.053a11.542 11.542 0 00-8.213 3.434 11.552 11.552 0 00-3.362 8.244 11.664 11.664 0 001.359 5.409l.141.263v4.4h4.4l.262.141a11.664 11.664 0 005.409 1.359H16c3.094 0 6-1.194 8.191-3.363a11.581 11.581 0 003.441-8.209 11.583 11.583 0 00-3.403-8.275zM9.751 17.5a1.502 1.502 0 01-1.041-2.55c.275-.28.649-.442 1.041-.45a1.502 1.502 0 011.041 2.55c-.275.28-.649.442-1.041.45zm6.25 0a1.502 1.502 0 01-1.041-2.55c.275-.28.649-.442 1.041-.45a1.502 1.502 0 011.041 2.55c-.275.28-.649.442-1.041.45zm6.25 0a1.502 1.502 0 01-1.041-2.55c.275-.28.649-.442 1.041-.45a1.502 1.502 0 011.041 2.55c-.275.28-.649.442-1.041.45z"/><path fill="var(--dots, #000)" d="M20.75 16a1.503 1.503 0 001.5 1.5 1.503 1.503 0 001.5-1.5 1.503 1.503 0 00-1.5-1.5 1.503 1.503 0 00-1.5 1.5zm-12.5 0a1.503 1.503 0 001.5 1.5 1.503 1.503 0 001.5-1.5 1.503 1.503 0 00-1.5-1.5 1.503 1.503 0 00-1.5 1.5z"/><path fill="var(--border, #000)" d="M28.913 10.575a14.013 14.013 0 00-7.487-7.487 13.932 13.932 0 00-5.425-1.087h-.063a13.95 13.95 0 00-9.891 4.138 13.884 13.884 0 00-2.975 4.463A14.008 14.008 0 002 16.068c.011 2.17.524 4.309 1.5 6.247v4.75a1.434 1.434 0 001.437 1.437H9.69a14.048 14.048 0 006.247 1.5h.066c1.872 0 3.688-.363 5.397-1.072a13.895 13.895 0 004.463-2.975 13.968 13.968 0 004.138-9.89 13.96 13.96 0 00-1.087-5.488zm-4.722 13.688A11.564 11.564 0 0116 27.626h-.053a11.664 11.664 0 01-5.409-1.359l-.262-.141h-4.4v-4.4l-.141-.263a11.664 11.664 0 01-1.359-5.409A11.552 11.552 0 017.738 7.81a11.536 11.536 0 018.213-3.434h.053c1.563 0 3.078.303 4.506.903a11.543 11.543 0 013.719 2.5 11.587 11.587 0 013.403 8.275 11.58 11.58 0 01-3.441 8.209z"/><path fill="var(--dot, #000)" d="M14.5 16a1.503 1.503 0 001.5 1.5 1.503 1.503 0 001.5-1.5 1.503 1.503 0 00-1.5-1.5 1.503 1.503 0 00-1.5 1.5z"/></symbol><symbol id="icon-bell" viewBox="0 0 32 32"><path d="M26.364 24.727h-.818V13.136c0-4.81-3.556-8.785-8.182-9.447V2.363a1.364 1.364 0 10-2.728 0v1.326c-4.626.661-8.182 4.636-8.182 9.447v11.591h-.818a1.09 1.09 0 00-1.091 1.091v1.091c0 .15.123.273.273.273h7.364C12.182 29.289 13.893 31 16 31s3.818-1.711 3.818-3.818h7.364c.15 0 .273-.123.273-.273v-1.091a1.09 1.09 0 00-1.091-1.091zM16 28.818a1.637 1.637 0 01-1.636-1.636h3.273c0 .903-.733 1.636-1.636 1.636zm-7.091-4.091V13.136c0-1.895.736-3.675 2.076-5.015S14.104 6.045 16 6.045c1.895 0 3.675.736 5.015 2.076s2.076 3.119 2.076 5.015v11.591H8.909z"/></symbol><symbol id="icon-info" viewBox="0 0 32 32"><path d="M16 2C8.269 2 2 8.269 2 16s6.269 14 14 14 14-6.269 14-14S23.731 2 16 2zm0 25.625C9.581 27.625 4.375 22.419 4.375 16S9.581 4.375 16 4.375 27.625 9.581 27.625 16 22.419 27.625 16 27.625z"/><path d="M14.5 10.5A1.503 1.503 0 0016 12a1.503 1.503 0 001.5-1.5A1.503 1.503 0 0016 9a1.503 1.503 0 00-1.5 1.5zm2.25 3.5h-1.5a.251.251 0 00-.25.25v8.5c0 .137.113.25.25.25h1.5c.137 0 .25-.113.25-.25v-8.5a.251.251 0 00-.25-.25z"/></symbol><symbol id="icon-dropdown" viewBox="0 0 32 32"><path d="M29.682 7.167H2.315c-.821 0-1.279.867-.771 1.458l13.683 15.867c.392.454 1.146.454 1.542 0L30.452 8.625c.508-.592.05-1.458-.771-1.458z"/></symbol><symbol id="icon-dots" viewBox="0 0 32 32"><path fill="var(--color3, #595959)" d="M5.5 15.969a1.752 1.752 0 001.08 1.617 1.752 1.752 0 002.287-2.287 1.757 1.757 0 00-.947-.947 1.752 1.752 0 00-2.42 1.617zm8.75 0a1.752 1.752 0 002.987 1.237 1.75 1.75 0 10-2.987-1.237zm8.75 0a1.752 1.752 0 002.987 1.237A1.75 1.75 0 1023 15.969z"/></symbol><symbol id="icon-clock" viewBox="0 0 32 32"><path fill="var(--color4, #0050b3)" d="M16 2C8.269 2 2 8.269 2 16s6.269 14 14 14 14-6.269 14-14S23.731 2 16 2zm0 25.625C9.581 27.625 4.375 22.419 4.375 16S9.581 4.375 16 4.375 27.625 9.581 27.625 16 22.419 27.625 16 27.625z"/><path fill="var(--color4, #0050b3)" d="M21.459 19.956l-4.456-3.222V9a.251.251 0 00-.25-.25H15.25A.251.251 0 0015 9v8.606c0 .081.037.156.103.203l5.169 3.769a.253.253 0 00.35-.053l.894-1.219a.25.25 0 00-.056-.35z"/></symbol><symbol id="icon-earbuds" viewBox="0 0 32 32"><path fill="var(--color5, #e6f7ff)" d="M21.75 19.75h4v6h-4v-6zm-15.5 0h4v6h-4v-6z"/><path fill="var(--color6, #1890ff)" d="M16 4C9.372 4 4 9.372 4 16v11.25c0 .416.334.75.75.75h5.75c1.103 0 2-.897 2-2v-6.5c0-1.103-.897-2-2-2H6.25V16c0-5.384 4.366-9.75 9.75-9.75s9.75 4.366 9.75 9.75v1.5H21.5c-1.103 0-2 .897-2 2V26c0 1.103.897 2 2 2h5.75c.416 0 .75-.334.75-.75V16c0-6.628-5.372-12-12-12zm-5.75 15.75v6h-4v-6h4zm15.5 6h-4v-6h4v6z"/></symbol><symbol id="icon-flags" viewBox="0 0 32 32"><path fill="var(--color5, #e6f7ff)" d="M5.75 7.25h11.5v10.5H5.75V7.25z"/><path fill="var(--color5, #e6f7ff)" d="M19.5 19.75c0 .137-.113.25-.25.25h-3.5v2.281h10.5v-10.5H19.5v7.969z"/><path fill="var(--color6, #1890ff)" d="M27.5 9.531h-8V6a1 1 0 00-1-1H5.75V3.75a.25.25 0 00-.25-.25H3.75a.25.25 0 00-.25.25v24.5c0 .137.112.25.25.25H5.5a.25.25 0 00.25-.25V20h7.75v3.531a1 1 0 001 1h13a1 1 0 001-1v-13a1 1 0 00-1-1zM5.75 17.75V7.25h11.5v10.5H5.75zm20.5 4.531h-10.5V20h3.5c.137 0 .25-.113.25-.25v-7.969h6.75v10.5z"/></symbol><symbol id="icon-friend" viewBox="0 0 32 32"><path fill="var(--color6, #1890ff)" d="M21.197 20.075a5.36 5.36 0 012.544-.638h.003a.1.1 0 00.069-.175 11.626 11.626 0 00-3.241-2.056c-.012-.006-.025-.009-.037-.016a7.75 7.75 0 003.203-6.284c0-4.281-3.463-7.75-7.734-7.75s-7.731 3.469-7.731 7.75a7.745 7.745 0 003.206 6.284c-.012.006-.025.009-.037.016a11.636 11.636 0 00-3.728 2.519 11.681 11.681 0 00-2.513 3.734 11.669 11.669 0 00-.919 4.316.253.253 0 00.071.181.255.255 0 00.179.076h1.872a.252.252 0 00.25-.244 9.325 9.325 0 012.737-6.384 9.278 9.278 0 016.616-2.747c1.772 0 3.472.491 4.937 1.409a.255.255 0 00.253.01zm-5.191-3.794a5.331 5.331 0 01-3.794-1.575 5.348 5.348 0 01-1.572-3.8c0-1.434.559-2.784 1.572-3.8s2.359-1.575 3.794-1.575c1.434 0 2.778.559 3.794 1.575a5.348 5.348 0 011.572 3.8 5.35 5.35 0 01-1.572 3.8 5.33 5.33 0 01-3.794 1.575zM27.5 23.719h-2.625v-2.625a.251.251 0 00-.25-.25h-1.75a.251.251 0 00-.25.25v2.625H20a.25.25 0 00-.25.25v1.75c0 .137.113.25.25.25h2.625v2.625c0 .137.113.25.25.25h1.75c.137 0 .25-.113.25-.25v-2.625H27.5a.25.25 0 00.25-.25v-1.75a.25.25 0 00-.25-.25z"/></symbol><symbol id="icon-gift" viewBox="0 0 32 32"><path fill="var(--color5, #e6f7ff)" d="M17.063 11.813h9.312v3.25h-9.312v-3.25zm-9.938 5.374h7.812v9.625H7.125v-9.625zm-1.5-5.374h9.312v3.25H5.625v-3.25zm11.438 5.374h7.812v9.625h-7.812v-9.625z"/><path fill="var(--color6, #1890ff)" d="M27.5 9.688h-4.613a4.304 4.304 0 00.675-2.313 4.317 4.317 0 00-4.313-4.313 4.309 4.309 0 00-3.25 1.481 4.309 4.309 0 00-3.25-1.481 4.317 4.317 0 00-4.313 4.313c0 .85.247 1.644.675 2.313H4.499a1 1 0 00-1 1v6.25c0 .137.112.25.25.25h1.25v10.75a1 1 0 001 1h20a1 1 0 001-1v-10.75h1.25c.137 0 .25-.113.25-.25v-6.25a1 1 0 00-1-1zM14.937 26.813H7.125v-9.625h7.812v9.625zm0-11.75H5.625v-3.25h9.312v3.25zm0-5.5H12.75c-1.206 0-2.188-.981-2.188-2.188s.981-2.188 2.188-2.188a2.19 2.19 0 012.187 2.188v2.188zm2.126-2.188c0-1.206.981-2.188 2.187-2.188s2.187.981 2.187 2.188a2.19 2.19 0 01-2.187 2.188h-2.187V7.375zm7.812 19.438h-7.812v-9.625h7.812v9.625zm1.5-11.75h-9.312v-3.25h9.312v3.25z"/></symbol><symbol id="icon-happy" viewBox="0 0 32 32"><path fill="var(--color6, #1890ff)" d="M16 2C8.269 2 2 8.269 2 16s6.269 14 14 14 14-6.269 14-14S23.731 2 16 2zm0 25.625C9.581 27.625 4.375 22.419 4.375 16S9.581 4.375 16 4.375 27.625 9.581 27.625 16 22.419 27.625 16 27.625z"/><path fill="var(--color5, #e6f7ff)" d="M16 4.375C9.581 4.375 4.375 9.581 4.375 16S9.581 27.625 16 27.625 27.625 22.419 27.625 16 22.419 4.375 16 4.375zm-7 8.781a1.502 1.502 0 012.55-1.041c.28.275.442.649.45 1.041a1.502 1.502 0 01-2.55 1.041A1.503 1.503 0 019 13.156zm7 8.5a5.011 5.011 0 01-5-4.737c-.002-.034.004-.068.015-.1s.03-.061.053-.085a.251.251 0 01.182-.077h1.503c.131 0 .244.1.253.231a3.004 3.004 0 005.988 0 .252.252 0 01.253-.231h1.503a.251.251 0 01.235.162.259.259 0 01.015.1 5.011 5.011 0 01-5 4.737zm5.5-7a1.502 1.502 0 01-1.041-2.55c.275-.28.649-.442 1.041-.45a1.502 1.502 0 011.041 2.55c-.275.28-.649.442-1.041.45z"/><path fill="var(--color6, #1890ff)" d="M9 13.156a1.503 1.503 0 001.5 1.5 1.503 1.503 0 001.5-1.5 1.503 1.503 0 00-1.5-1.5 1.503 1.503 0 00-1.5 1.5zm11.75 3.5h-1.503c-.131 0-.244.1-.253.231a3.004 3.004 0 01-5.988 0 .252.252 0 00-.253-.231H11.25a.251.251 0 00-.235.162.259.259 0 00-.015.1c.137 2.634 2.328 4.737 5 4.737s4.863-2.103 5-4.737a.244.244 0 00-.068-.185.257.257 0 00-.182-.077zm-.75-3.5a1.503 1.503 0 001.5 1.5 1.503 1.503 0 001.5-1.5 1.503 1.503 0 00-1.5-1.5 1.503 1.503 0 00-1.5 1.5z"/></symbol><symbol id="icon-home" viewBox="0 0 32 32"><path fill="var(--color5, #e6f7ff)" d="M16.004 5.394L4.441 16.947h3v10.178h4.809V20c0-.691.559-1.25 1.25-1.25h5c.691 0 1.25.559 1.25 1.25v7.125h4.809V16.947h3.003L16.003 5.394zm13.578 13.215zM1.863 17.525a2.002 2.002 0 001.972 1.672h.028a2.023 2.023 0 01-2-1.672zm-.028-.328zm.004-.081z"/><path fill="var(--color6, #1890ff)" d="M29.718 15.937c0-.003-.003-.003-.003-.006l-.056-.066c-.003-.003-.006-.009-.013-.013l-.069-.075L16.693 2.902a.985.985 0 00-1.388 0L2.421 15.78a1.983 1.983 0 00-.5.831l-.019.066-.009.034-.009.037c-.006.022-.009.044-.012.066 0 .003 0 .009-.003.013a1.68 1.68 0 00-.031.284v.103c0 .016 0 .031.003.047 0 .016 0 .028.003.044 0 .016.003.031.003.047 0 .019.003.038.006.056l.003.028.009.078v.003a2.026 2.026 0 002 1.672h1.328v10.184h21.616V19.195h1.356c.269 0 .528-.053.766-.153s.459-.247.65-.434a1.989 1.989 0 00.584-1.415c0-.459-.156-.9-.447-1.256zM17.749 27.125h-3.5V20.75h3.5v6.375zm6.809-10.178v10.178h-4.809V20a1.25 1.25 0 00-1.25-1.25h-5a1.25 1.25 0 00-1.25 1.25v7.125H7.44V16.947h-3L16.003 5.394l11.559 11.553h-3.003z"/></symbol><symbol id="icon-like" viewBox="0 0 32 32"><path fill="var(--background, #e6f7ff)" d="M8.531 15.497v13.375l.009-13.375h-.009zm16.819-2.759h-9.825l.3-6.2a1.11 1.11 0 00-.456-.953 1.082 1.082 0 00-.659-.209 1.384 1.384 0 00-1.319 1.009l-2.609 9.453v10.787h12.481a1.778 1.778 0 00.834-2.471l-.434-.794.684-.594a1.774 1.774 0 00.613-1.344c0-.303-.072-.591-.216-.853l-.434-.794.684-.594a1.774 1.774 0 00.613-1.344c0-.303-.072-.591-.216-.853l-.437-.797.684-.594a1.774 1.774 0 00.613-1.344c0-.597-.344-1.172-.9-1.512z"/><path fill="var(--border, #1890ff)" d="M3.5 16.5v11.375a1 1 0 001 1h2.031V15.5H4.5a1 1 0 00-1 1zm24.184.178a4.023 4.023 0 00.816-2.428c0-1.403-.784-2.734-2.047-3.469a2.115 2.115 0 00-1.072-.291h-7.497l.188-3.841a3.319 3.319 0 00-.922-2.481 3.32 3.32 0 00-2.435-1.044 3.634 3.634 0 00-3.494 2.659L8.54 15.496l-.009 13.375h14.753c.291 0 .569-.056.828-.169a4.017 4.017 0 002.278-4.856 4.023 4.023 0 00.647-3.584 4.023 4.023 0 00.647-3.584zm-2.046-1.084l-.684.594.437.797c.143.261.217.555.216.853 0 .516-.222 1.006-.612 1.344l-.684.594.434.794c.143.262.217.555.216.853 0 .516-.222 1.006-.613 1.344l-.684.594.434.794a1.777 1.777 0 01-.834 2.472H10.783V15.84c.581-2.1 1.45-5.25 2.609-9.453a1.385 1.385 0 011.319-1.01c.234-.003.469.069.659.209.309.231.475.581.456.953l-.3 6.2h9.825c.556.341.9.916.9 1.512 0 .516-.222 1.006-.612 1.344z"/></symbol><symbol id="icon-market" viewBox="0 0 32 32"><path fill="var(--color5, #e6f7ff)" d="M26.234 10.75H5.765c-.009 0-.016.006-.016.016v2.85C5.749 15.485 7.28 17 9.165 17a3.426 3.426 0 002.972-1.709.516.516 0 01.894 0A3.417 3.417 0 0016 17a3.415 3.415 0 002.972-1.716.505.505 0 01.434-.253h.019a.5.5 0 01.434.253A3.424 3.424 0 0022.834 17c1.884 0 3.416-1.516 3.416-3.384v-2.85c0-.009-.006-.016-.016-.016z"/><path fill="var(--color6, #1890ff)" d="M27.563 8.503V4.5a1 1 0 00-1-1H5.438a1 1 0 00-1 1v4.003A1 1 0 003.5 9.5v4.116a5.53 5.53 0 00.45 2.2c.134.319.3.619.487.903V27.5c0 .55.447 1 1 1h21.125a1 1 0 001-1V16.719a5.582 5.582 0 00.937-3.103V9.5a1 1 0 00-.937-.997zM6.688 5.75h18.625V8.5H6.688V5.75zm11.313 20.503h-4V23h4v3.253zm7.324 0H20V22a1 1 0 00-1-1h-6a1 1 0 00-1 1v4.253H6.687v-7.569a5.63 5.63 0 002.481.566c.762 0 1.5-.147 2.2-.441a5.65 5.65 0 001.209-.691.021.021 0 01.019 0 5.68 5.68 0 003.409 1.132 5.674 5.674 0 003.409-1.132.021.021 0 01.019 0 5.68 5.68 0 003.409 1.132c.763 0 1.5-.147 2.2-.441.094-.041.187-.081.281-.125v7.569zm.926-12.637c0 1.869-1.531 3.384-3.416 3.384a3.422 3.422 0 01-2.975-1.716.5.5 0 00-.434-.253h-.019a.503.503 0 00-.434.253 3.411 3.411 0 01-2.972 1.715 3.417 3.417 0 01-2.969-1.709.516.516 0 00-.894 0 3.426 3.426 0 01-2.972 1.709c-1.884 0-3.416-1.516-3.416-3.384v-2.85c0-.009.006-.016.016-.016h20.469c.009 0 .016.006.016.016v2.85z"/></symbol><symbol id="icon-news" viewBox="0 0 32 32"><path fill="var(--color6, #1890ff)" d="M27.5 3.5h-23a1 1 0 00-1 1v23a1 1 0 001 1h23a1 1 0 001-1v-23a1 1 0 00-1-1zm-1.25 22.75H5.75V5.75h20.5v20.5z"/><path fill="var(--color5, #e6f7ff)" d="M5.75 26.25h20.5V5.75H5.75v20.5zm9.375-15.5a.25.25 0 01.25-.25h5.75c.137 0 .25.113.25.25v1.5a.25.25 0 01-.25.25h-5.75a.251.251 0 01-.25-.25v-1.5zm0 4.5a.25.25 0 01.25-.25h5.75c.137 0 .25.113.25.25v1.5a.25.25 0 01-.25.25h-5.75a.251.251 0 01-.25-.25v-1.5zm0 4.5a.25.25 0 01.25-.25h5.75c.137 0 .25.113.25.25v1.5a.25.25 0 01-.25.25h-5.75a.251.251 0 01-.25-.25v-1.5zm-3.25-9.5a1.25 1.25 0 11.002 2.498 1.25 1.25 0 01-.002-2.498zm0 4.5a1.25 1.25 0 11.002 2.498 1.25 1.25 0 01-.002-2.498zm0 4.5a1.25 1.25 0 11.002 2.498 1.25 1.25 0 01-.002-2.498z"/><path fill="var(--color6, #1890ff)" d="M10.625 20.5a1.254 1.254 0 001.25 1.25 1.252 1.252 0 001.25-1.25 1.254 1.254 0 00-1.25-1.25 1.252 1.252 0 00-1.25 1.25zm0-4.5a1.254 1.254 0 001.25 1.25 1.252 1.252 0 001.25-1.25 1.254 1.254 0 00-1.25-1.25 1.252 1.252 0 00-1.25 1.25zm0-4.5a1.252 1.252 0 001.25 1.25 1.252 1.252 0 001.25-1.25 1.252 1.252 0 00-1.25-1.25 1.252 1.252 0 00-1.25 1.25zm4.75 10h5.75c.137 0 .25-.113.25-.25v-1.5a.25.25 0 00-.25-.25h-5.75a.251.251 0 00-.25.25v1.5c0 .137.112.25.25.25zm0-4.5h5.75c.137 0 .25-.113.25-.25v-1.5a.25.25 0 00-.25-.25h-5.75a.251.251 0 00-.25.25v1.5c0 .137.112.25.25.25zm0-4.5h5.75c.137 0 .25-.113.25-.25v-1.5a.25.25 0 00-.25-.25h-5.75a.251.251 0 00-.25.25v1.5c0 .137.112.25.25.25z"/></symbol><symbol id="icon-picture" viewBox="0 0 32 32"><path fill="var(--color6, #1890ff)" d="M29 5H3a1 1 0 00-1 1v20a1 1 0 001 1h26a1 1 0 001-1V6a1 1 0 00-1-1zm-1.25 19.75H4.25v-1.247l4.328-5.134 4.691 5.562 7.297-8.65L27.75 23.8v.95zm0-4.056L20.756 12.4a.248.248 0 00-.381 0l-7.106 8.425-4.5-5.334a.248.248 0 00-.381 0L4.25 20.397V7.25h23.5v13.444z"/><path fill="var(--color5, #e6f7ff)" d="M13.269 23.931l-4.691-5.562-4.328 5.134v1.247h23.5v-.95l-7.184-8.519-7.297 8.65z"/><path fill="var(--color5, #e6f7ff)" d="M4.25 20.397l4.137-4.906a.248.248 0 01.381 0l4.5 5.334 7.106-8.425a.248.248 0 01.381 0l6.994 8.294V7.25h-23.5v13.147zM9.5 8.75a2.75 2.75 0 11-2.75 2.748 2.747 2.747 0 012.75-2.75z"/><path fill="var(--color5, #e6f7ff)" d="M8.625 11.5a.876.876 0 101.751 0 .876.876 0 00-1.751 0z"/><path fill="var(--color6, #1890ff)" d="M9.5 14.25a2.75 2.75 0 10-2.75-2.748 2.747 2.747 0 002.75 2.75zm0-3.625a.874.874 0 110 1.75.874.874 0 110-1.75z"/></symbol><symbol id="icon-trophy" viewBox="0 0 32 32"><path fill="var(--color5, #e6f7ff)" d="M10 15c0 1.534.597 2.978 1.684 4.066a5.707 5.707 0 004.066 1.684h.5a5.715 5.715 0 004.066-1.684A5.707 5.707 0 0022 15V5.75H10V15zm-4.25-4zm11.375 11.953zm-9.306-6.89z"/><path fill="var(--color6, #1890ff)" d="M27.125 5H24.25V3.75A.25.25 0 0024 3.5H8a.25.25 0 00-.25.25V5H4.875A1.374 1.374 0 003.5 6.375V11a5.134 5.134 0 004.319 5.063 8.01 8.01 0 007.056 6.891v3.288H8.75a1 1 0 00-1 1v1.009c0 .137.112.25.25.25h16c.137 0 .25-.113.25-.25v-1.009a1 1 0 00-1-1h-6.125v-3.288a8.01 8.01 0 007.056-6.891A5.133 5.133 0 0028.5 11V6.375A1.374 1.374 0 0027.125 5zM7.75 13.737a2.873 2.873 0 01-2-2.738v-3.75h2v6.487zM22 15a5.71 5.71 0 01-1.684 4.066 5.712 5.712 0 01-4.066 1.684h-.5a5.71 5.71 0 01-4.066-1.684A5.708 5.708 0 0110 15V5.75h12V15zm4.25-4a2.874 2.874 0 01-2 2.737V7.25h2V11z"/></symbol><symbol id="icon-rocket" viewBox="0 0 32 32"><path fill="var(--color5, #e6f7ff)" d="M8.179 19.419a6.581 6.581 0 00-.703 1.456h2.65v-3.416a6.647 6.647 0 00-1.947 1.959zm13.697-1.959v3.416h2.65a6.6 6.6 0 00-2.65-3.415zm-2-7.497l-3.875-4.594-3.875 4.594v10.912h7.75V9.963zM16.001 14a1.503 1.503 0 01-1.47-1.5 1.498 1.498 0 011.47-1.5 1.502 1.502 0 011.041 2.55c-.275.28-.649.442-1.041.45z"/><path fill="var(--color6, #1890ff)" d="M27 23c0-3.487-2.044-6.5-5-7.903V9.916c0-.472-.166-.928-.472-1.287l-4.763-5.647a1 1 0 00-1.532 0L10.47 8.629c-.304.36-.471.816-.472 1.287v5.181a8.746 8.746 0 00-5 7.903h4.891a2.412 2.412 0 00-.109.744 3.035 3.035 0 002.016 2.856 4.556 4.556 0 004.203 2.775c.909 0 1.791-.269 2.544-.775a4.539 4.539 0 001.656-2 3.033 3.033 0 001.347-.953 3.045 3.045 0 00.669-1.9c0-.263-.034-.513-.097-.744L26.999 23zm-16.875-2.125h-2.65a6.635 6.635 0 012.65-3.415v3.416zm2-5.778V9.963L16 5.369l3.875 4.594v10.912h-7.75v-5.778zm7.503 9.409a.84.84 0 01-.534.106l-.609-.075-.087.606c-.169 1.184-1.2 2.078-2.397 2.078s-2.228-.894-2.397-2.078l-.087-.609-.609.078a.865.865 0 01-.534-.109.88.88 0 01-.441-.762c0-.331.184-.606.456-.744h7.228a.826.826 0 01.456.744.887.887 0 01-.444.766zm2.247-3.631v-3.416a6.623 6.623 0 012.65 3.415h-2.65z"/><path fill="var(--color6, #1890ff)" d="M14.5 12.5A1.503 1.503 0 0016 14a1.503 1.503 0 001.5-1.5A1.503 1.503 0 0016 11a1.503 1.503 0 00-1.5 1.5z"/></symbol><symbol id="icon-share" viewBox="0 0 32 32"><path fill="var(--color3, #595959)" d="M23.5 20.75c-.891 0-1.713.313-2.356.834L14.669 16.9a5.04 5.04 0 000-1.8l6.475-4.684a3.733 3.733 0 002.356.834c2.069 0 3.75-1.681 3.75-3.75s-1.681-3.75-3.75-3.75a3.753 3.753 0 00-3.603 4.791l-6.15 4.453A5 5 0 009.75 11c-2.763 0-5 2.237-5 5s2.237 5 5 5a4.997 4.997 0 003.997-1.994l6.15 4.453A3.753 3.753 0 0023.5 28.25a3.753 3.753 0 003.75-3.75 3.753 3.753 0 00-3.75-3.75zm0-14.875a1.626 1.626 0 11-.001 3.251 1.626 1.626 0 01.001-3.251zM9.75 18.75C8.234 18.75 7 17.516 7 16s1.234-2.75 2.75-2.75S12.5 14.484 12.5 16s-1.234 2.75-2.75 2.75zm13.75 7.375a1.626 1.626 0 11.001-3.251 1.626 1.626 0 01-.001 3.251z"/></symbol></defs></svg>