<svg aria-hidden="true" style="position: absolute; width: 0; height: 0; overflow: hidden;" version="1.1" xmlns="http://www.w3.org/2000/svg" xmlns:xlink="http://www.w3.org/1999/xlink">
<defs>
<symbol id="icon-users" viewBox="0 0 32 32">
<path d="M30.25 25.75h-3v-3c0-0.165-0.135-0.3-0.3-0.3h-1.8c-0.165 0-0.3 0.135-0.3 0.3v3h-3c-0.165 0-0.3 0.135-0.3 0.3v1.8c0 0.165 0.135 0.3 0.3 0.3h3v3c0 0.165 0.135 0.3 0.3 0.3h1.8c0.165 0 0.3-0.135 0.3-0.3v-3h3c0.165 0 0.3-0.135 0.3-0.3v-1.8c0-0.165-0.135-0.3-0.3-0.3zM10.806 15.49c-0.034-0.326-0.053-0.656-0.053-0.99 0-0.596 0.056-1.178 0.161-1.744 0.026-0.135-0.045-0.274-0.169-0.33-0.51-0.229-0.979-0.544-1.384-0.941-0.477-0.463-0.853-1.020-1.103-1.636s-0.369-1.277-0.349-1.942c0.034-1.204 0.518-2.348 1.361-3.21 0.926-0.949 2.171-1.466 3.495-1.451 1.196 0.011 2.351 0.473 3.225 1.29 0.296 0.277 0.551 0.585 0.765 0.915 0.075 0.116 0.221 0.165 0.349 0.12 0.66-0.229 1.357-0.39 2.074-0.465 0.21-0.022 0.33-0.247 0.236-0.435-1.219-2.411-3.709-4.076-6.589-4.121-4.155-0.064-7.62 3.345-7.62 7.5 0 2.355 1.084 4.455 2.782 5.831-1.192 0.551-2.291 1.313-3.244 2.265-2.055 2.051-3.217 4.759-3.292 7.65-0.001 0.040 0.006 0.080 0.021 0.117s0.037 0.071 0.065 0.1c0.028 0.029 0.061 0.052 0.098 0.067s0.077 0.024 0.117 0.024h2.104c0.161 0 0.296-0.128 0.3-0.289 0.071-2.175 0.952-4.211 2.501-5.756 1.103-1.103 2.453-1.868 3.926-2.239 0.143-0.041 0.24-0.18 0.221-0.33zM27.7 14.5c0-4.103-3.296-7.436-7.384-7.5-4.155-0.064-7.616 3.345-7.616 7.5 0 2.355 1.088 4.455 2.783 5.831-1.205 0.559-2.302 1.325-3.24 2.265-2.055 2.051-3.217 4.759-3.293 7.646-0.001 0.040 0.006 0.080 0.021 0.117s0.037 0.071 0.065 0.1c0.028 0.029 0.061 0.051 0.098 0.067s0.077 0.024 0.117 0.024h2.1c0.161 0 0.296-0.128 0.3-0.289 0.071-2.175 0.953-4.211 2.501-5.756 1.616-1.616 3.761-2.505 6.049-2.505 4.14 0 7.5-3.356 7.5-7.5zM23.593 17.894c-0.907 0.908-2.111 1.406-3.394 1.406s-2.486-0.499-3.394-1.406c-0.453-0.451-0.811-0.987-1.052-1.579s-0.362-1.225-0.354-1.864c0.011-1.23 0.502-2.419 1.361-3.3 0.9-0.922 2.104-1.436 3.39-1.451 1.271-0.011 2.505 0.484 3.412 1.373 0.93 0.911 1.44 2.13 1.44 3.428-0.004 1.283-0.503 2.486-1.41 3.394z"></path>
</symbol>
<symbol id="icon-chat" viewBox="0 0 32 32">
<path d="M14.364 16c0 0.434 0.172 0.85 0.479 1.157s0.723 0.479 1.157 0.479c0.434 0 0.85-0.172 1.157-0.479s0.479-0.723 0.479-1.157c0-0.434-0.172-0.85-0.479-1.157s-0.723-0.479-1.157-0.479-0.85 0.172-1.157 0.479c-0.307 0.307-0.479 0.723-0.479 1.157zM21.182 16c0 0.434 0.172 0.85 0.479 1.157s0.723 0.479 1.157 0.479c0.434 0 0.85-0.172 1.157-0.479s0.479-0.723 0.479-1.157c0-0.434-0.172-0.85-0.479-1.157s-0.723-0.479-1.157-0.479-0.85 0.172-1.157 0.479c-0.307 0.307-0.479 0.723-0.479 1.157zM7.546 16c0 0.434 0.172 0.85 0.479 1.157s0.723 0.479 1.157 0.479c0.434 0 0.85-0.172 1.157-0.479s0.479-0.723 0.479-1.157c0-0.434-0.172-0.85-0.479-1.157s-0.723-0.479-1.157-0.479-0.85 0.172-1.157 0.479c-0.307 0.307-0.479 0.723-0.479 1.157zM30.087 10.082c-0.77-1.831-1.875-3.474-3.283-4.885-1.398-1.403-3.058-2.519-4.885-3.283-1.875-0.788-3.866-1.186-5.918-1.186h-0.068c-2.066 0.010-4.067 0.419-5.949 1.224-1.812 0.772-3.456 1.89-4.841 3.29-1.394 1.408-2.489 3.044-3.245 4.868-0.784 1.889-1.18 3.897-1.169 5.962 0.012 2.368 0.572 4.7 1.636 6.815v5.182c0 0.416 0.165 0.815 0.459 1.109s0.693 0.459 1.109 0.459h5.185c2.115 1.065 4.447 1.625 6.815 1.636h0.072c2.042 0 4.023-0.395 5.888-1.169 1.818-0.755 3.472-1.858 4.868-3.246 1.408-1.394 2.516-3.024 3.29-4.841 0.805-1.882 1.214-3.883 1.224-5.949 0.010-2.076-0.392-4.091-1.186-5.986zM24.936 25.014c-2.39 2.366-5.56 3.668-8.935 3.668h-0.058c-2.056-0.010-4.098-0.522-5.901-1.483l-0.286-0.153h-4.8v-4.8l-0.153-0.286c-0.961-1.803-1.473-3.846-1.483-5.901-0.014-3.399 1.285-6.59 3.668-8.993 2.38-2.403 5.56-3.733 8.959-3.747h0.058c1.705 0 3.358 0.331 4.916 0.985 1.52 0.638 2.884 1.555 4.057 2.727 1.169 1.169 2.090 2.536 2.727 4.057 0.661 1.575 0.992 3.245 0.985 4.97-0.020 3.395-1.353 6.576-3.753 8.956z"></path>
</symbol>
<symbol id="icon-bell" viewBox="0 0 32 32">
<path d="M26.364 24.727h-0.818v-11.591c0-4.81-3.556-8.785-8.182-9.447v-1.326c0-0.753-0.61-1.364-1.364-1.364s-1.364 0.61-1.364 1.364v1.326c-4.626 0.661-8.182 4.636-8.182 9.447v11.591h-0.818c-0.603 0-1.091 0.488-1.091 1.091v1.091c0 0.15 0.123 0.273 0.273 0.273h7.364c0 2.107 1.711 3.818 3.818 3.818s3.818-1.711 3.818-3.818h7.364c0.15 0 0.273-0.123 0.273-0.273v-1.091c0-0.603-0.488-1.091-1.091-1.091zM16 28.818c-0.903 0-1.636-0.733-1.636-1.636h3.273c0 0.903-0.733 1.636-1.636 1.636zM8.909 24.727v-11.591c0-1.895 0.736-3.675 2.076-5.015s3.119-2.076 5.015-2.076c1.895 0 3.675 0.736 5.015 2.076s2.076 3.119 2.076 5.015v11.591h-14.182z"></path>
</symbol>
<symbol id="icon-info" viewBox="0 0 32 32">
<path d="M16 2c-7.731 0-14 6.269-14 14s6.269 14 14 14c7.731 0 14-6.269 14-14s-6.269-14-14-14zM16 27.625c-6.419 0-11.625-5.206-11.625-11.625s5.206-11.625 11.625-11.625c6.419 0 11.625 5.206 11.625 11.625s-5.206 11.625-11.625 11.625z"></path>
<path d="M14.5 10.5c0 0.398 0.158 0.779 0.439 1.061s0.663 0.439 1.061 0.439c0.398 0 0.779-0.158 1.061-0.439s0.439-0.663 0.439-1.061c0-0.398-0.158-0.779-0.439-1.061s-0.663-0.439-1.061-0.439c-0.398 0-0.779 0.158-1.061 0.439s-0.439 0.663-0.439 1.061zM16.75 14h-1.5c-0.137 0-0.25 0.113-0.25 0.25v8.5c0 0.137 0.113 0.25 0.25 0.25h1.5c0.137 0 0.25-0.113 0.25-0.25v-8.5c0-0.137-0.113-0.25-0.25-0.25z"></path>
</symbol>
<symbol id="icon-dropdown" viewBox="0 0 32 32">
<path d="M29.682 7.167h-27.367c-0.821 0-1.279 0.867-0.771 1.458l13.683 15.867c0.392 0.454 1.146 0.454 1.542 0l13.683-15.867c0.508-0.592 0.050-1.458-0.771-1.458z"></path>
</symbol>
</defs>
</svg>
