<svg aria-hidden="true" style="position: absolute; width: 0; height: 0; overflow: hidden;" version="1.1" xmlns="http://www.w3.org/2000/svg" xmlns:xlink="http://www.w3.org/1999/xlink">
<defs>
<symbol id="icon-users" viewBox="0 0 32 32">
<path d="M30.25 25.75h-3v-3c0-0.165-0.135-0.3-0.3-0.3h-1.8c-0.165 0-0.3 0.135-0.3 0.3v3h-3c-0.165 0-0.3 0.135-0.3 0.3v1.8c0 0.165 0.135 0.3 0.3 0.3h3v3c0 0.165 0.135 0.3 0.3 0.3h1.8c0.165 0 0.3-0.135 0.3-0.3v-3h3c0.165 0 0.3-0.135 0.3-0.3v-1.8c0-0.165-0.135-0.3-0.3-0.3zM10.806 15.49c-0.034-0.326-0.053-0.656-0.053-0.99 0-0.596 0.056-1.178 0.161-1.744 0.026-0.135-0.045-0.274-0.169-0.33-0.51-0.229-0.979-0.544-1.384-0.941-0.477-0.463-0.853-1.020-1.103-1.636s-0.369-1.277-0.349-1.942c0.034-1.204 0.518-2.348 1.361-3.21 0.926-0.949 2.171-1.466 3.495-1.451 1.196 0.011 2.351 0.473 3.225 1.29 0.296 0.277 0.551 0.585 0.765 0.915 0.075 0.116 0.221 0.165 0.349 0.12 0.66-0.229 1.357-0.39 2.074-0.465 0.21-0.022 0.33-0.247 0.236-0.435-1.219-2.411-3.709-4.076-6.589-4.121-4.155-0.064-7.62 3.345-7.62 7.5 0 2.355 1.084 4.455 2.782 5.831-1.192 0.551-2.291 1.313-3.244 2.265-2.055 2.051-3.217 4.759-3.292 7.65-0.001 0.040 0.006 0.080 0.021 0.117s0.037 0.071 0.065 0.1c0.028 0.029 0.061 0.052 0.098 0.067s0.077 0.024 0.117 0.024h2.104c0.161 0 0.296-0.128 0.3-0.289 0.071-2.175 0.952-4.211 2.501-5.756 1.103-1.103 2.453-1.868 3.926-2.239 0.143-0.041 0.24-0.18 0.221-0.33zM27.7 14.5c0-4.103-3.296-7.436-7.384-7.5-4.155-0.064-7.616 3.345-7.616 7.5 0 2.355 1.088 4.455 2.783 5.831-1.205 0.559-2.302 1.325-3.24 2.265-2.055 2.051-3.217 4.759-3.293 7.646-0.001 0.040 0.006 0.080 0.021 0.117s0.037 0.071 0.065 0.1c0.028 0.029 0.061 0.051 0.098 0.067s0.077 0.024 0.117 0.024h2.1c0.161 0 0.296-0.128 0.3-0.289 0.071-2.175 0.953-4.211 2.501-5.756 1.616-1.616 3.761-2.505 6.049-2.505 4.14 0 7.5-3.356 7.5-7.5zM23.593 17.894c-0.907 0.908-2.111 1.406-3.394 1.406s-2.486-0.499-3.394-1.406c-0.453-0.451-0.811-0.987-1.052-1.579s-0.362-1.225-0.354-1.864c0.011-1.23 0.502-2.419 1.361-3.3 0.9-0.922 2.104-1.436 3.39-1.451 1.271-0.011 2.505 0.484 3.412 1.373 0.93 0.911 1.44 2.13 1.44 3.428-0.004 1.283-0.503 2.486-1.41 3.394z"></path>
</symbol>
<symbol id="icon-chat" viewBox="0 0 32 32">
<path fill="#fff" style="fill: var(--background, #fff)" d="M24.229 7.778c-1.065-1.068-2.328-1.917-3.719-2.5-1.427-0.599-2.959-0.906-4.506-0.903h-0.053c-3.116 0.013-6.031 1.231-8.213 3.434-2.184 2.203-3.375 5.128-3.362 8.244 0.009 1.884 0.478 3.756 1.359 5.409l0.141 0.263v4.4h4.4l0.262 0.141c1.653 0.881 3.525 1.35 5.409 1.359h0.053c3.094 0 6-1.194 8.191-3.363 2.2-2.181 3.422-5.097 3.441-8.209 0.006-1.581-0.297-3.113-0.903-4.556-0.583-1.391-1.432-2.654-2.5-3.719zM9.751 17.5c-0.393-0.008-0.766-0.17-1.041-0.45s-0.429-0.657-0.429-1.050c0-0.393 0.154-0.77 0.429-1.050s0.649-0.442 1.041-0.45c0.393 0.008 0.766 0.17 1.041 0.45s0.429 0.657 0.429 1.050c0 0.393-0.154 0.77-0.429 1.050s-0.649 0.442-1.041 0.45zM16.001 17.5c-0.393-0.008-0.766-0.17-1.041-0.45s-0.429-0.657-0.429-1.050c0-0.393 0.154-0.77 0.429-1.050s0.649-0.442 1.041-0.45c0.393 0.008 0.766 0.17 1.041 0.45s0.429 0.657 0.429 1.050c0 0.393-0.154 0.77-0.429 1.050s-0.649 0.442-1.041 0.45zM22.251 17.5c-0.393-0.008-0.766-0.17-1.041-0.45s-0.429-0.657-0.429-1.050c0-0.393 0.154-0.77 0.429-1.050s0.649-0.442 1.041-0.45c0.393 0.008 0.766 0.17 1.041 0.45s0.429 0.657 0.429 1.050c0 0.393-0.154 0.77-0.429 1.050s-0.649 0.442-1.041 0.45z"></path>
<path fill="#000" style="fill: var(--dots, #000)" d="M20.75 16c0 0.398 0.158 0.779 0.439 1.061s0.663 0.439 1.061 0.439c0.398 0 0.779-0.158 1.061-0.439s0.439-0.663 0.439-1.061c0-0.398-0.158-0.779-0.439-1.061s-0.663-0.439-1.061-0.439c-0.398 0-0.779 0.158-1.061 0.439s-0.439 0.663-0.439 1.061zM8.25 16c0 0.398 0.158 0.779 0.439 1.061s0.663 0.439 1.061 0.439c0.398 0 0.779-0.158 1.061-0.439s0.439-0.663 0.439-1.061c0-0.398-0.158-0.779-0.439-1.061s-0.663-0.439-1.061-0.439c-0.398 0-0.779 0.158-1.061 0.439s-0.439 0.663-0.439 1.061z"></path>
<path fill="#000" style="fill: var(--border, #000)" d="M28.913 10.575c-0.706-1.678-1.719-3.184-3.009-4.478-1.282-1.286-2.803-2.309-4.478-3.009-1.719-0.722-3.544-1.087-5.425-1.087h-0.063c-1.894 0.009-3.728 0.384-5.453 1.122-1.661 0.708-3.168 1.732-4.438 3.016-1.278 1.291-2.281 2.791-2.975 4.463-0.719 1.731-1.081 3.572-1.072 5.466 0.011 2.17 0.524 4.309 1.5 6.247v4.75c0 0.381 0.151 0.747 0.421 1.016s0.635 0.421 1.016 0.421h4.753c1.938 0.976 4.077 1.489 6.247 1.5h0.066c1.872 0 3.688-0.363 5.397-1.072 1.667-0.692 3.182-1.703 4.463-2.975 1.291-1.278 2.306-2.772 3.016-4.437 0.737-1.725 1.113-3.559 1.122-5.453 0.009-1.903-0.359-3.75-1.087-5.488zM24.191 24.263c-2.191 2.169-5.097 3.363-8.191 3.363h-0.053c-1.884-0.009-3.756-0.478-5.409-1.359l-0.262-0.141h-4.4v-4.4l-0.141-0.263c-0.881-1.653-1.35-3.525-1.359-5.409-0.013-3.116 1.178-6.041 3.362-8.244 2.181-2.203 5.097-3.422 8.213-3.434h0.053c1.563 0 3.078 0.303 4.506 0.903 1.394 0.584 2.644 1.425 3.719 2.5 1.072 1.072 1.916 2.325 2.5 3.719 0.606 1.444 0.909 2.975 0.903 4.556-0.019 3.113-1.241 6.028-3.441 8.209z"></path>
<path fill="#000" style="fill: var(--dot, #000)" d="M14.5 16c0 0.398 0.158 0.779 0.439 1.061s0.663 0.439 1.061 0.439c0.398 0 0.779-0.158 1.061-0.439s0.439-0.663 0.439-1.061c0-0.398-0.158-0.779-0.439-1.061s-0.663-0.439-1.061-0.439c-0.398 0-0.779 0.158-1.061 0.439s-0.439 0.663-0.439 1.061z"></path>
</symbol>
<symbol id="icon-bell" viewBox="0 0 32 32">
<path d="M26.364 24.727h-0.818v-11.591c0-4.81-3.556-8.785-8.182-9.447v-1.326c0-0.753-0.61-1.364-1.364-1.364s-1.364 0.61-1.364 1.364v1.326c-4.626 0.661-8.182 4.636-8.182 9.447v11.591h-0.818c-0.603 0-1.091 0.488-1.091 1.091v1.091c0 0.15 0.123 0.273 0.273 0.273h7.364c0 2.107 1.711 3.818 3.818 3.818s3.818-1.711 3.818-3.818h7.364c0.15 0 0.273-0.123 0.273-0.273v-1.091c0-0.603-0.488-1.091-1.091-1.091zM16 28.818c-0.903 0-1.636-0.733-1.636-1.636h3.273c0 0.903-0.733 1.636-1.636 1.636zM8.909 24.727v-11.591c0-1.895 0.736-3.675 2.076-5.015s3.119-2.076 5.015-2.076c1.895 0 3.675 0.736 5.015 2.076s2.076 3.119 2.076 5.015v11.591h-14.182z"></path>
</symbol>
<symbol id="icon-info" viewBox="0 0 32 32">
<path d="M16 2c-7.731 0-14 6.269-14 14s6.269 14 14 14c7.731 0 14-6.269 14-14s-6.269-14-14-14zM16 27.625c-6.419 0-11.625-5.206-11.625-11.625s5.206-11.625 11.625-11.625c6.419 0 11.625 5.206 11.625 11.625s-5.206 11.625-11.625 11.625z"></path>
<path d="M14.5 10.5c0 0.398 0.158 0.779 0.439 1.061s0.663 0.439 1.061 0.439c0.398 0 0.779-0.158 1.061-0.439s0.439-0.663 0.439-1.061c0-0.398-0.158-0.779-0.439-1.061s-0.663-0.439-1.061-0.439c-0.398 0-0.779 0.158-1.061 0.439s-0.439 0.663-0.439 1.061zM16.75 14h-1.5c-0.137 0-0.25 0.113-0.25 0.25v8.5c0 0.137 0.113 0.25 0.25 0.25h1.5c0.137 0 0.25-0.113 0.25-0.25v-8.5c0-0.137-0.113-0.25-0.25-0.25z"></path>
</symbol>
<symbol id="icon-dropdown" viewBox="0 0 32 32">
<path d="M29.682 7.167h-27.367c-0.821 0-1.279 0.867-0.771 1.458l13.683 15.867c0.392 0.454 1.146 0.454 1.542 0l13.683-15.867c0.508-0.592 0.050-1.458-0.771-1.458z"></path>
</symbol>
<symbol id="icon-dots" viewBox="0 0 32 32">
<path fill="#595959" style="fill: var(--color3, #595959)" d="M5.5 15.969c0 0.23 0.045 0.457 0.133 0.67s0.217 0.405 0.379 0.568c0.162 0.163 0.355 0.291 0.568 0.379s0.44 0.133 0.67 0.133 0.457-0.045 0.67-0.133c0.212-0.088 0.405-0.217 0.568-0.379s0.291-0.355 0.379-0.568c0.088-0.212 0.133-0.44 0.133-0.67s-0.045-0.457-0.133-0.67-0.217-0.405-0.379-0.568c-0.162-0.163-0.355-0.291-0.568-0.379s-0.44-0.133-0.67-0.133-0.457 0.045-0.67 0.133c-0.212 0.088-0.405 0.217-0.568 0.379s-0.291 0.355-0.379 0.568c-0.088 0.212-0.133 0.44-0.133 0.67zM14.25 15.969c0 0.464 0.184 0.909 0.513 1.237s0.773 0.513 1.237 0.513 0.909-0.184 1.237-0.513c0.328-0.328 0.513-0.773 0.513-1.237s-0.184-0.909-0.513-1.237c-0.328-0.328-0.773-0.513-1.237-0.513s-0.909 0.184-1.237 0.513c-0.328 0.328-0.513 0.773-0.513 1.237zM23 15.969c0 0.464 0.184 0.909 0.513 1.237s0.773 0.513 1.237 0.513 0.909-0.184 1.237-0.513c0.328-0.328 0.513-0.773 0.513-1.237s-0.184-0.909-0.513-1.237c-0.328-0.328-0.773-0.513-1.237-0.513s-0.909 0.184-1.237 0.513c-0.328 0.328-0.513 0.773-0.513 1.237z"></path>
</symbol>
<symbol id="icon-clock" viewBox="0 0 32 32">
<path fill="#0050b3" style="fill: var(--color4, #0050b3)" d="M16 2c-7.731 0-14 6.269-14 14s6.269 14 14 14c7.731 0 14-6.269 14-14s-6.269-14-14-14zM16 27.625c-6.419 0-11.625-5.206-11.625-11.625s5.206-11.625 11.625-11.625c6.419 0 11.625 5.206 11.625 11.625s-5.206 11.625-11.625 11.625z"></path>
<path fill="#0050b3" style="fill: var(--color4, #0050b3)" d="M21.459 19.956l-4.456-3.222v-7.734c0-0.137-0.113-0.25-0.25-0.25h-1.503c-0.137 0-0.25 0.113-0.25 0.25v8.606c0 0.081 0.037 0.156 0.103 0.203l5.169 3.769c0.113 0.081 0.269 0.056 0.35-0.053l0.894-1.219c0.081-0.116 0.056-0.272-0.056-0.35z"></path>
</symbol>
<symbol id="icon-earbuds" viewBox="0 0 32 32">
<path fill="#e6f7ff" style="fill: var(--color5, #e6f7ff)" d="M21.75 19.75h4v6h-4v-6zM6.25 19.75h4v6h-4v-6z"></path>
<path fill="#1890ff" style="fill: var(--color6, #1890ff)" d="M16 4c-6.628 0-12 5.372-12 12v11.25c0 0.416 0.334 0.75 0.75 0.75h5.75c1.103 0 2-0.897 2-2v-6.5c0-1.103-0.897-2-2-2h-4.25v-1.5c0-5.384 4.366-9.75 9.75-9.75s9.75 4.366 9.75 9.75v1.5h-4.25c-1.103 0-2 0.897-2 2v6.5c0 1.103 0.897 2 2 2h5.75c0.416 0 0.75-0.334 0.75-0.75v-11.25c0-6.628-5.372-12-12-12zM10.25 19.75v6h-4v-6h4zM25.75 25.75h-4v-6h4v6z"></path>
</symbol>
<symbol id="icon-flags" viewBox="0 0 32 32">
<path fill="#e6f7ff" style="fill: var(--color5, #e6f7ff)" d="M5.75 7.25h11.5v10.5h-11.5v-10.5z"></path>
<path fill="#e6f7ff" style="fill: var(--color5, #e6f7ff)" d="M19.5 19.75c0 0.137-0.113 0.25-0.25 0.25h-3.5v2.281h10.5v-10.5h-6.75v7.969z"></path>
<path fill="#1890ff" style="fill: var(--color6, #1890ff)" d="M27.5 9.531h-8v-3.531c0-0.553-0.447-1-1-1h-12.75v-1.25c0-0.138-0.112-0.25-0.25-0.25h-1.75c-0.138 0-0.25 0.112-0.25 0.25v24.5c0 0.137 0.112 0.25 0.25 0.25h1.75c0.138 0 0.25-0.113 0.25-0.25v-8.25h7.75v3.531c0 0.553 0.447 1 1 1h13c0.553 0 1-0.447 1-1v-13c0-0.553-0.447-1-1-1zM5.75 17.75v-10.5h11.5v10.5h-11.5zM26.25 22.281h-10.5v-2.281h3.5c0.137 0 0.25-0.113 0.25-0.25v-7.969h6.75v10.5z"></path>
</symbol>
<symbol id="icon-friend" viewBox="0 0 32 32">
<path fill="#1890ff" style="fill: var(--color6, #1890ff)" d="M21.197 20.075c0.756-0.406 1.622-0.638 2.544-0.638h0.003c0.094 0 0.138-0.112 0.069-0.175-0.959-0.86-2.054-1.555-3.241-2.056-0.012-0.006-0.025-0.009-0.037-0.016 1.941-1.409 3.203-3.7 3.203-6.284 0-4.281-3.463-7.75-7.734-7.75s-7.731 3.469-7.731 7.75c0 2.584 1.262 4.875 3.206 6.284-0.012 0.006-0.025 0.009-0.037 0.016-1.397 0.591-2.65 1.437-3.728 2.519-1.072 1.070-1.925 2.338-2.513 3.734-0.578 1.367-0.89 2.832-0.919 4.316-0.001 0.033 0.005 0.067 0.017 0.098s0.030 0.059 0.054 0.083 0.051 0.043 0.082 0.056c0.031 0.013 0.064 0.020 0.097 0.020h1.872c0.134 0 0.247-0.109 0.25-0.244 0.063-2.413 1.028-4.672 2.737-6.384 1.766-1.772 4.116-2.747 6.616-2.747 1.772 0 3.472 0.491 4.937 1.409 0.038 0.024 0.081 0.037 0.125 0.039s0.089-0.008 0.128-0.029zM16.006 16.281c-1.431 0-2.778-0.559-3.794-1.575-0.5-0.498-0.896-1.091-1.166-1.743s-0.408-1.351-0.406-2.057c0-1.434 0.559-2.784 1.572-3.8s2.359-1.575 3.794-1.575c1.434 0 2.778 0.559 3.794 1.575 0.5 0.498 0.896 1.091 1.166 1.743s0.408 1.351 0.406 2.057c0 1.434-0.559 2.784-1.572 3.8-1.016 1.016-2.362 1.575-3.794 1.575zM27.5 23.719h-2.625v-2.625c0-0.137-0.113-0.25-0.25-0.25h-1.75c-0.137 0-0.25 0.113-0.25 0.25v2.625h-2.625c-0.137 0-0.25 0.112-0.25 0.25v1.75c0 0.137 0.113 0.25 0.25 0.25h2.625v2.625c0 0.137 0.113 0.25 0.25 0.25h1.75c0.137 0 0.25-0.113 0.25-0.25v-2.625h2.625c0.138 0 0.25-0.113 0.25-0.25v-1.75c0-0.138-0.112-0.25-0.25-0.25z"></path>
</symbol>
<symbol id="icon-gift" viewBox="0 0 32 32">
<path fill="#e6f7ff" style="fill: var(--color5, #e6f7ff)" d="M17.063 11.813h9.312v3.25h-9.312v-3.25zM7.125 17.187h7.812v9.625h-7.812v-9.625zM5.625 11.813h9.312v3.25h-9.312v-3.25zM17.063 17.187h7.812v9.625h-7.812v-9.625z"></path>
<path fill="#1890ff" style="fill: var(--color6, #1890ff)" d="M27.5 9.688h-4.613c0.425-0.669 0.675-1.463 0.675-2.313 0-2.378-1.934-4.313-4.313-4.313-1.294 0-2.459 0.575-3.25 1.481-0.791-0.906-1.956-1.481-3.25-1.481-2.378 0-4.313 1.934-4.313 4.313 0 0.85 0.247 1.644 0.675 2.313h-4.612c-0.553 0-1 0.447-1 1v6.25c0 0.137 0.112 0.25 0.25 0.25h1.25v10.75c0 0.553 0.447 1 1 1h20c0.553 0 1-0.447 1-1v-10.75h1.25c0.137 0 0.25-0.113 0.25-0.25v-6.25c0-0.553-0.447-1-1-1zM14.937 26.813h-7.812v-9.625h7.812v9.625zM14.937 15.063h-9.312v-3.25h9.312v3.25zM14.937 9.563h-2.187c-1.206 0-2.188-0.981-2.188-2.188s0.981-2.188 2.188-2.188c1.206 0 2.187 0.981 2.187 2.188v2.188zM17.063 7.375c0-1.206 0.981-2.188 2.187-2.188s2.187 0.981 2.187 2.188c0 1.206-0.981 2.188-2.187 2.188h-2.187v-2.188zM24.875 26.813h-7.812v-9.625h7.812v9.625zM26.375 15.063h-9.312v-3.25h9.312v3.25z"></path>
</symbol>
<symbol id="icon-happy" viewBox="0 0 32 32">
<path fill="#1890ff" style="fill: var(--color6, #1890ff)" d="M16 2c-7.731 0-14 6.269-14 14s6.269 14 14 14c7.731 0 14-6.269 14-14s-6.269-14-14-14zM16 27.625c-6.419 0-11.625-5.206-11.625-11.625s5.206-11.625 11.625-11.625c6.419 0 11.625 5.206 11.625 11.625s-5.206 11.625-11.625 11.625z"></path>
<path fill="#e6f7ff" style="fill: var(--color5, #e6f7ff)" d="M16 4.375c-6.419 0-11.625 5.206-11.625 11.625s5.206 11.625 11.625 11.625c6.419 0 11.625-5.206 11.625-11.625s-5.206-11.625-11.625-11.625zM9 13.156c0.008-0.393 0.17-0.766 0.45-1.041s0.657-0.429 1.050-0.429c0.393 0 0.77 0.154 1.050 0.429s0.442 0.649 0.45 1.041c-0.008 0.393-0.17 0.766-0.45 1.041s-0.657 0.429-1.050 0.429-0.77-0.154-1.050-0.429c-0.28-0.275-0.442-0.649-0.45-1.041zM16 21.656c-2.672 0-4.863-2.103-5-4.737-0.002-0.034 0.004-0.068 0.015-0.1s0.030-0.061 0.053-0.085 0.052-0.044 0.083-0.057c0.031-0.013 0.065-0.020 0.099-0.020h1.503c0.131 0 0.244 0.1 0.253 0.231 0.119 1.547 1.416 2.769 2.994 2.769s2.878-1.222 2.994-2.769c0.009-0.131 0.122-0.231 0.253-0.231h1.503c0.034 0 0.067 0.007 0.099 0.020s0.059 0.033 0.083 0.057c0.023 0.025 0.042 0.054 0.053 0.085s0.017 0.066 0.015 0.1c-0.137 2.634-2.328 4.737-5 4.737zM21.5 14.656c-0.393-0.008-0.766-0.17-1.041-0.45s-0.429-0.657-0.429-1.050c0-0.393 0.154-0.77 0.429-1.050s0.649-0.442 1.041-0.45c0.393 0.008 0.766 0.17 1.041 0.45s0.429 0.657 0.429 1.050c0 0.393-0.154 0.77-0.429 1.050s-0.649 0.442-1.041 0.45z"></path>
<path fill="#1890ff" style="fill: var(--color6, #1890ff)" d="M9 13.156c0 0.398 0.158 0.779 0.439 1.061s0.663 0.439 1.061 0.439c0.398 0 0.779-0.158 1.061-0.439s0.439-0.663 0.439-1.061c0-0.398-0.158-0.779-0.439-1.061s-0.663-0.439-1.061-0.439c-0.398 0-0.779 0.158-1.061 0.439s-0.439 0.663-0.439 1.061zM20.75 16.656h-1.503c-0.131 0-0.244 0.1-0.253 0.231-0.116 1.547-1.416 2.769-2.994 2.769s-2.875-1.222-2.994-2.769c-0.009-0.131-0.122-0.231-0.253-0.231h-1.503c-0.034 0-0.067 0.007-0.099 0.020s-0.059 0.033-0.083 0.057c-0.023 0.025-0.042 0.054-0.053 0.085s-0.017 0.066-0.015 0.1c0.137 2.634 2.328 4.737 5 4.737s4.863-2.103 5-4.737c0.002-0.034-0.003-0.068-0.015-0.1s-0.030-0.061-0.053-0.085-0.051-0.044-0.083-0.057c-0.031-0.013-0.065-0.020-0.099-0.020zM20 13.156c0 0.398 0.158 0.779 0.439 1.061s0.663 0.439 1.061 0.439c0.398 0 0.779-0.158 1.061-0.439s0.439-0.663 0.439-1.061c0-0.398-0.158-0.779-0.439-1.061s-0.663-0.439-1.061-0.439c-0.398 0-0.779 0.158-1.061 0.439s-0.439 0.663-0.439 1.061z"></path>
</symbol>
<symbol id="icon-home" viewBox="0 0 32 32">
<path fill="#e6f7ff" style="fill: var(--color5, #e6f7ff)" d="M16.004 5.394l-11.563 11.553h3v10.178h4.809v-7.125c0-0.691 0.559-1.25 1.25-1.25h5c0.691 0 1.25 0.559 1.25 1.25v7.125h4.809v-10.178h3.003l-11.559-11.553zM29.582 18.609c-0.187 0.188-0.409 0.338-0.65 0.434 0.241-0.1 0.463-0.247 0.65-0.434zM1.863 17.525c0.156 0.947 0.981 1.672 1.972 1.672h0.028c-0.997 0-1.841-0.719-2-1.672zM1.835 17.197v0zM1.839 17.116c0.003-0.097 0.016-0.191 0.031-0.284-0.019 0.091-0.028 0.187-0.031 0.284z"></path>
<path fill="#1890ff" style="fill: var(--color6, #1890ff)" d="M29.718 15.937c0-0.003-0.003-0.003-0.003-0.006l-0.056-0.066c-0.003-0.003-0.006-0.009-0.013-0.013-0.022-0.025-0.047-0.050-0.069-0.075l-12.884-12.875c-0.184-0.183-0.434-0.286-0.694-0.286s-0.509 0.103-0.694 0.286l-12.884 12.878c-0.233 0.232-0.405 0.517-0.5 0.831l-0.019 0.066-0.009 0.034-0.009 0.037c-0.006 0.022-0.009 0.044-0.012 0.066 0 0.003 0 0.009-0.003 0.013-0.019 0.094-0.028 0.187-0.031 0.284v0.103c0 0.016 0 0.031 0.003 0.047 0 0.016 0 0.028 0.003 0.044 0 0.016 0.003 0.031 0.003 0.047 0 0.019 0.003 0.038 0.006 0.056 0 0.009 0.003 0.019 0.003 0.028l0.009 0.078v0.003c0.159 0.953 1.006 1.672 2 1.672h1.328v10.184h21.616v-10.178h1.356c0.269 0 0.528-0.053 0.766-0.153s0.459-0.247 0.65-0.434c0.186-0.186 0.334-0.406 0.434-0.649s0.151-0.503 0.15-0.766c0-0.459-0.156-0.9-0.447-1.256zM17.749 27.125h-3.5v-6.375h3.5v6.375zM24.558 16.947v10.178h-4.809v-7.125c0-0.691-0.559-1.25-1.25-1.25h-5c-0.691 0-1.25 0.559-1.25 1.25v7.125h-4.809v-10.178h-3l11.563-11.553 11.559 11.553h-3.003z"></path>
</symbol>
<symbol id="icon-like" viewBox="0 0 32 32">
<path fill="#e6f7ff" style="fill: var(--background, #e6f7ff)" d="M8.531 15.497v13.375l0.009-13.375h-0.009zM25.35 12.738h-9.825l0.3-6.2c0.019-0.372-0.147-0.722-0.456-0.953-0.191-0.141-0.425-0.213-0.659-0.209-0.613 0.003-1.153 0.419-1.319 1.009-1.159 4.2-2.028 7.35-2.609 9.453v10.787h12.481c0.312-0.14 0.578-0.367 0.764-0.654s0.286-0.622 0.286-0.964c0-0.303-0.072-0.591-0.216-0.853l-0.434-0.794 0.684-0.594c0.193-0.167 0.347-0.373 0.453-0.605s0.16-0.484 0.16-0.739c0-0.303-0.072-0.591-0.216-0.853l-0.434-0.794 0.684-0.594c0.193-0.167 0.347-0.373 0.453-0.605s0.16-0.484 0.16-0.739c0-0.303-0.072-0.591-0.216-0.853l-0.437-0.797 0.684-0.594c0.193-0.167 0.347-0.373 0.453-0.605s0.16-0.484 0.16-0.739c0-0.597-0.344-1.172-0.9-1.512z"></path>
<path fill="#1890ff" style="fill: var(--border, #1890ff)" d="M3.5 16.5v11.375c0 0.553 0.447 1 1 1h2.031v-13.375h-2.031c-0.553 0-1 0.447-1 1zM27.684 16.678c0.525-0.694 0.816-1.544 0.816-2.428 0-1.403-0.784-2.734-2.047-3.469-0.325-0.191-0.695-0.291-1.072-0.291h-7.497l0.188-3.841c0.047-0.928-0.281-1.809-0.922-2.481-0.313-0.331-0.69-0.595-1.109-0.775s-0.87-0.271-1.326-0.269c-1.625 0-3.063 1.094-3.494 2.659l-2.681 9.713-0.009 13.375h14.753c0.291 0 0.569-0.056 0.828-0.169 1.488-0.634 2.447-2.087 2.447-3.7 0-0.394-0.056-0.781-0.169-1.156 0.525-0.694 0.816-1.544 0.816-2.428 0-0.394-0.056-0.781-0.169-1.156 0.525-0.694 0.816-1.544 0.816-2.428 0-0.394-0.056-0.781-0.169-1.156zM25.638 15.594l-0.684 0.594 0.437 0.797c0.143 0.261 0.217 0.555 0.216 0.853 0 0.516-0.222 1.006-0.612 1.344l-0.684 0.594 0.434 0.794c0.143 0.262 0.217 0.555 0.216 0.853 0 0.516-0.222 1.006-0.613 1.344l-0.684 0.594 0.434 0.794c0.143 0.261 0.217 0.555 0.216 0.853 0 0.7-0.412 1.331-1.050 1.619h-12.481v-10.787c0.581-2.1 1.45-5.25 2.609-9.453 0.081-0.288 0.253-0.543 0.491-0.725s0.528-0.282 0.828-0.285c0.234-0.003 0.469 0.069 0.659 0.209 0.309 0.231 0.475 0.581 0.456 0.953l-0.3 6.2h9.825c0.556 0.341 0.9 0.916 0.9 1.512 0 0.516-0.222 1.006-0.612 1.344z"></path>
</symbol>
<symbol id="icon-market" viewBox="0 0 32 32">
<path fill="#e6f7ff" style="fill: var(--color5, #e6f7ff)" d="M26.234 10.75h-20.469c-0.009 0-0.016 0.006-0.016 0.016v2.85c0 1.869 1.531 3.384 3.416 3.384 1.272 0 2.381-0.687 2.972-1.709 0.091-0.159 0.262-0.259 0.447-0.259s0.353 0.1 0.447 0.259c0.588 1.022 1.697 1.709 2.969 1.709 1.275 0 2.387-0.691 2.972-1.716 0.091-0.156 0.256-0.253 0.434-0.253h0.019c0.181 0 0.344 0.097 0.434 0.253 0.588 1.025 1.7 1.716 2.975 1.716 1.884 0 3.416-1.516 3.416-3.384v-2.85c0-0.009-0.006-0.016-0.016-0.016z"></path>
<path fill="#1890ff" style="fill: var(--color6, #1890ff)" d="M27.563 8.503v-4.003c0-0.553-0.447-1-1-1h-21.125c-0.553 0-1 0.447-1 1v4.003c-0.522 0.031-0.938 0.466-0.938 0.997v4.116c-0.002 0.756 0.151 1.505 0.45 2.2 0.134 0.319 0.3 0.619 0.487 0.903v10.781c0 0.55 0.447 1 1 1h21.125c0.553 0 1-0.447 1-1v-10.781c0.19-0.285 0.354-0.587 0.487-0.903 0.297-0.697 0.45-1.437 0.45-2.2v-4.116c0-0.531-0.416-0.966-0.937-0.997zM6.688 5.75h18.625v2.75h-18.625v-2.75zM18.001 26.253h-4v-3.253h4v3.253zM25.325 26.253h-5.325v-4.253c0-0.553-0.447-1-1-1h-6c-0.553 0-1 0.447-1 1v4.253h-5.313v-7.569c0.091 0.044 0.184 0.087 0.281 0.125 0.697 0.294 1.438 0.441 2.2 0.441s1.5-0.147 2.2-0.441c0.431-0.181 0.838-0.412 1.209-0.691 0.006-0.003 0.012-0.003 0.019 0 0.373 0.279 0.779 0.511 1.209 0.691 0.697 0.294 1.437 0.441 2.2 0.441s1.5-0.147 2.2-0.441c0.431-0.181 0.837-0.412 1.209-0.691 0.006-0.003 0.013-0.003 0.019 0 0.373 0.279 0.779 0.511 1.209 0.691 0.697 0.294 1.437 0.441 2.2 0.441s1.5-0.147 2.2-0.441c0.094-0.041 0.187-0.081 0.281-0.125v7.569zM26.251 13.616c0 1.869-1.531 3.384-3.416 3.384-1.275 0-2.388-0.691-2.975-1.716-0.091-0.156-0.253-0.253-0.434-0.253h-0.019c-0.178 0-0.344 0.097-0.434 0.253-0.3 0.523-0.733 0.957-1.255 1.258s-1.115 0.459-1.717 0.457c-1.272 0-2.381-0.687-2.969-1.709-0.094-0.159-0.262-0.259-0.447-0.259s-0.356 0.1-0.447 0.259c-0.302 0.521-0.735 0.953-1.257 1.253s-1.113 0.457-1.715 0.456c-1.884 0-3.416-1.516-3.416-3.384v-2.85c0-0.009 0.006-0.016 0.016-0.016h20.469c0.009 0 0.016 0.006 0.016 0.016v2.85z"></path>
</symbol>
<symbol id="icon-news" viewBox="0 0 32 32">
<path fill="#1890ff" style="fill: var(--color6, #1890ff)" d="M27.5 3.5h-23c-0.553 0-1 0.447-1 1v23c0 0.553 0.447 1 1 1h23c0.553 0 1-0.447 1-1v-23c0-0.553-0.447-1-1-1zM26.25 26.25h-20.5v-20.5h20.5v20.5z"></path>
<path fill="#e6f7ff" style="fill: var(--color5, #e6f7ff)" d="M5.75 26.25h20.5v-20.5h-20.5v20.5zM15.125 10.75c0-0.137 0.112-0.25 0.25-0.25h5.75c0.137 0 0.25 0.113 0.25 0.25v1.5c0 0.137-0.112 0.25-0.25 0.25h-5.75c-0.137 0-0.25-0.113-0.25-0.25v-1.5zM15.125 15.25c0-0.137 0.112-0.25 0.25-0.25h5.75c0.137 0 0.25 0.113 0.25 0.25v1.5c0 0.137-0.112 0.25-0.25 0.25h-5.75c-0.137 0-0.25-0.113-0.25-0.25v-1.5zM15.125 19.75c0-0.137 0.112-0.25 0.25-0.25h5.75c0.137 0 0.25 0.113 0.25 0.25v1.5c0 0.137-0.112 0.25-0.25 0.25h-5.75c-0.137 0-0.25-0.113-0.25-0.25v-1.5zM11.875 10.25c0.691 0 1.25 0.559 1.25 1.25s-0.559 1.25-1.25 1.25c-0.691 0-1.25-0.559-1.25-1.25s0.559-1.25 1.25-1.25zM11.875 14.75c0.691 0 1.25 0.559 1.25 1.25s-0.559 1.25-1.25 1.25c-0.691 0-1.25-0.559-1.25-1.25s0.559-1.25 1.25-1.25zM11.875 19.25c0.691 0 1.25 0.559 1.25 1.25s-0.559 1.25-1.25 1.25c-0.691 0-1.25-0.559-1.25-1.25s0.559-1.25 1.25-1.25z"></path>
<path fill="#1890ff" style="fill: var(--color6, #1890ff)" d="M10.625 20.5c0 0.331 0.132 0.649 0.366 0.884s0.552 0.366 0.884 0.366c0.332 0 0.649-0.132 0.884-0.366s0.366-0.552 0.366-0.884c0-0.331-0.132-0.649-0.366-0.884s-0.552-0.366-0.884-0.366c-0.332 0-0.649 0.132-0.884 0.366s-0.366 0.552-0.366 0.884zM10.625 16c0 0.331 0.132 0.649 0.366 0.884s0.552 0.366 0.884 0.366c0.332 0 0.649-0.132 0.884-0.366s0.366-0.552 0.366-0.884c0-0.331-0.132-0.649-0.366-0.884s-0.552-0.366-0.884-0.366c-0.332 0-0.649 0.132-0.884 0.366s-0.366 0.552-0.366 0.884zM10.625 11.5c0 0.332 0.132 0.649 0.366 0.884s0.552 0.366 0.884 0.366c0.332 0 0.649-0.132 0.884-0.366s0.366-0.552 0.366-0.884c0-0.332-0.132-0.649-0.366-0.884s-0.552-0.366-0.884-0.366c-0.332 0-0.649 0.132-0.884 0.366s-0.366 0.552-0.366 0.884zM15.375 21.5h5.75c0.137 0 0.25-0.113 0.25-0.25v-1.5c0-0.137-0.112-0.25-0.25-0.25h-5.75c-0.137 0-0.25 0.113-0.25 0.25v1.5c0 0.137 0.112 0.25 0.25 0.25zM15.375 17h5.75c0.137 0 0.25-0.113 0.25-0.25v-1.5c0-0.137-0.112-0.25-0.25-0.25h-5.75c-0.137 0-0.25 0.113-0.25 0.25v1.5c0 0.137 0.112 0.25 0.25 0.25zM15.375 12.5h5.75c0.137 0 0.25-0.113 0.25-0.25v-1.5c0-0.137-0.112-0.25-0.25-0.25h-5.75c-0.137 0-0.25 0.113-0.25 0.25v1.5c0 0.137 0.112 0.25 0.25 0.25z"></path>
</symbol>
<symbol id="icon-picture" viewBox="0 0 32 32">
<path fill="#1890ff" style="fill: var(--color6, #1890ff)" d="M29 5h-26c-0.553 0-1 0.447-1 1v20c0 0.553 0.447 1 1 1h26c0.553 0 1-0.447 1-1v-20c0-0.553-0.447-1-1-1zM27.75 24.75h-23.5v-1.247l4.328-5.134 4.691 5.562 7.297-8.65 7.184 8.519v0.95zM27.75 20.694l-6.994-8.294c-0.1-0.119-0.281-0.119-0.381 0l-7.106 8.425-4.5-5.334c-0.1-0.119-0.281-0.119-0.381 0l-4.138 4.906v-13.147h23.5v13.444z"></path>
<path fill="#e6f7ff" style="fill: var(--color5, #e6f7ff)" d="M13.269 23.931l-4.691-5.562-4.328 5.134v1.247h23.5v-0.95l-7.184-8.519-7.297 8.65z"></path>
<path fill="#e6f7ff" style="fill: var(--color5, #e6f7ff)" d="M4.25 20.397l4.137-4.906c0.1-0.119 0.281-0.119 0.381 0l4.5 5.334 7.106-8.425c0.1-0.119 0.281-0.119 0.381 0l6.994 8.294v-13.444h-23.5v13.147zM9.5 8.75c0.361 0 0.719 0.071 1.052 0.209s0.637 0.341 0.892 0.596c0.255 0.255 0.458 0.559 0.596 0.892s0.209 0.691 0.209 1.052c0 0.361-0.071 0.719-0.209 1.052s-0.341 0.637-0.596 0.892c-0.255 0.255-0.559 0.458-0.892 0.596s-0.691 0.209-1.052 0.209c-0.729 0-1.429-0.29-1.945-0.805s-0.805-1.215-0.805-1.945c0-0.729 0.29-1.429 0.805-1.945s1.215-0.805 1.945-0.805z"></path>
<path fill="#e6f7ff" style="fill: var(--color5, #e6f7ff)" d="M8.625 11.5c0 0.232 0.092 0.455 0.256 0.619s0.387 0.256 0.619 0.256c0.232 0 0.455-0.092 0.619-0.256s0.256-0.387 0.256-0.619c0-0.232-0.092-0.455-0.256-0.619s-0.387-0.256-0.619-0.256c-0.232 0-0.455 0.092-0.619 0.256s-0.256 0.387-0.256 0.619z"></path>
<path fill="#1890ff" style="fill: var(--color6, #1890ff)" d="M9.5 14.25c0.361 0 0.719-0.071 1.052-0.209s0.637-0.341 0.892-0.596 0.458-0.559 0.596-0.892c0.138-0.334 0.209-0.691 0.209-1.052s-0.071-0.719-0.209-1.052c-0.138-0.334-0.341-0.637-0.596-0.892s-0.559-0.458-0.892-0.596c-0.334-0.138-0.691-0.209-1.052-0.209-0.729 0-1.429 0.29-1.945 0.805s-0.805 1.215-0.805 1.945c0 0.729 0.29 1.429 0.805 1.945s1.215 0.805 1.945 0.805zM9.5 10.625c0.484 0 0.875 0.391 0.875 0.875s-0.391 0.875-0.875 0.875c-0.484 0-0.875-0.391-0.875-0.875s0.391-0.875 0.875-0.875z"></path>
</symbol>
<symbol id="icon-trophy" viewBox="0 0 32 32">
<path fill="#e6f7ff" style="fill: var(--color5, #e6f7ff)" d="M10 15c0 1.534 0.597 2.978 1.684 4.066 1.084 1.087 2.531 1.684 4.066 1.684h0.5c1.534 0 2.978-0.597 4.066-1.684 1.087-1.084 1.684-2.531 1.684-4.066v-9.25h-12v9.25zM5.75 11c0 1.281 0.841 2.369 2 2.737-1.159-0.372-2-1.459-2-2.737zM17.125 22.953c3.656-0.397 6.575-3.259 7.056-6.891-0.484 3.631-3.4 6.491-7.056 6.891zM7.819 16.063c0.481 3.631 3.4 6.494 7.056 6.891-3.656-0.4-6.572-3.259-7.056-6.891z"></path>
<path fill="#1890ff" style="fill: var(--color6, #1890ff)" d="M27.125 5h-2.875v-1.25c0-0.138-0.113-0.25-0.25-0.25h-16c-0.138 0-0.25 0.112-0.25 0.25v1.25h-2.875c-0.365 0-0.714 0.145-0.972 0.403s-0.403 0.608-0.403 0.972v4.625c0 2.553 1.875 4.675 4.319 5.063 0.484 3.631 3.4 6.491 7.056 6.891v3.288h-6.125c-0.553 0-1 0.447-1 1v1.009c0 0.137 0.112 0.25 0.25 0.25h16c0.137 0 0.25-0.113 0.25-0.25v-1.009c0-0.553-0.447-1-1-1h-6.125v-3.288c3.656-0.4 6.572-3.259 7.056-6.891 2.444-0.387 4.319-2.509 4.319-5.063v-4.625c0-0.365-0.145-0.714-0.403-0.972s-0.608-0.403-0.972-0.403zM7.75 13.737c-0.58-0.185-1.087-0.55-1.447-1.043s-0.553-1.086-0.553-1.695v-3.75h2v6.487zM22 15c0 1.534-0.597 2.981-1.684 4.066-1.087 1.087-2.531 1.684-4.066 1.684h-0.5c-1.534 0-2.981-0.597-4.066-1.684-1.088-1.087-1.684-2.531-1.684-4.066v-9.25h12v9.25zM26.25 11c0 1.281-0.841 2.369-2 2.737v-6.487h2v3.75z"></path>
</symbol>
<symbol id="icon-rocket" viewBox="0 0 32 32">
<path fill="#e6f7ff" style="fill: var(--color5, #e6f7ff)" d="M8.179 19.419c-0.294 0.456-0.531 0.947-0.703 1.456h2.65v-3.416c-0.775 0.506-1.438 1.172-1.947 1.959zM21.876 17.46v3.416h2.65c-0.172-0.509-0.409-1-0.703-1.456-0.504-0.783-1.167-1.451-1.947-1.959zM19.876 9.963l-3.875-4.594-3.875 4.594v10.912h7.75v-10.912zM16.001 14c-0.392-0.008-0.766-0.17-1.041-0.45s-0.429-0.657-0.429-1.050 0.154-0.77 0.429-1.050c0.275-0.28 0.649-0.442 1.041-0.45 0.393 0.008 0.766 0.17 1.041 0.45s0.429 0.657 0.429 1.050c0 0.393-0.154 0.77-0.429 1.050s-0.649 0.442-1.041 0.45z"></path>
<path fill="#1890ff" style="fill: var(--color6, #1890ff)" d="M27 23c0-3.487-2.044-6.5-5-7.903v-5.181c0-0.472-0.166-0.928-0.472-1.287l-4.763-5.647c-0.2-0.237-0.484-0.356-0.766-0.356s-0.566 0.119-0.766 0.356l-4.763 5.647c-0.304 0.36-0.471 0.816-0.472 1.287v5.181c-2.956 1.403-5 4.416-5 7.903h4.891c-0.072 0.225-0.109 0.469-0.109 0.744 0 0.691 0.238 1.366 0.669 1.9 0.352 0.437 0.818 0.768 1.347 0.956 0.722 1.687 2.362 2.775 4.203 2.775 0.909 0 1.791-0.269 2.544-0.775 0.737-0.494 1.309-1.184 1.656-2 0.528-0.187 0.995-0.517 1.347-0.953 0.432-0.539 0.668-1.209 0.669-1.9 0-0.263-0.034-0.513-0.097-0.744l4.881-0.003zM10.125 20.875h-2.65c0.172-0.509 0.409-1 0.703-1.456 0.509-0.788 1.172-1.453 1.947-1.959v3.416zM12.125 15.097v-5.134l3.875-4.594 3.875 4.594v10.912h-7.75v-5.778zM19.628 24.506c-0.163 0.094-0.35 0.131-0.534 0.106l-0.609-0.075-0.087 0.606c-0.169 1.184-1.2 2.078-2.397 2.078s-2.228-0.894-2.397-2.078l-0.087-0.609-0.609 0.078c-0.185 0.022-0.373-0.016-0.534-0.109-0.272-0.156-0.441-0.447-0.441-0.762 0-0.331 0.184-0.606 0.456-0.744h7.228c0.275 0.141 0.456 0.416 0.456 0.744-0.003 0.319-0.172 0.612-0.444 0.766zM21.875 20.875v-3.416c0.78 0.509 1.443 1.177 1.947 1.959 0.294 0.456 0.531 0.947 0.703 1.456h-2.65z"></path>
<path fill="#1890ff" style="fill: var(--color6, #1890ff)" d="M14.5 12.5c0 0.398 0.158 0.779 0.439 1.061s0.663 0.439 1.061 0.439c0.398 0 0.779-0.158 1.061-0.439s0.439-0.663 0.439-1.061c0-0.398-0.158-0.779-0.439-1.061s-0.663-0.439-1.061-0.439c-0.398 0-0.779 0.158-1.061 0.439s-0.439 0.663-0.439 1.061z"></path>
</symbol>
<symbol id="icon-share" viewBox="0 0 32 32">
<path fill="#595959" style="fill: var(--color3, #595959)" d="M23.5 20.75c-0.891 0-1.713 0.313-2.356 0.834l-6.475-4.684c0.108-0.595 0.108-1.205 0-1.8l6.475-4.684c0.644 0.522 1.466 0.834 2.356 0.834 2.069 0 3.75-1.681 3.75-3.75s-1.681-3.75-3.75-3.75c-2.069 0-3.75 1.681-3.75 3.75 0 0.362 0.050 0.709 0.147 1.041l-6.15 4.453c-0.913-1.209-2.363-1.994-3.997-1.994-2.763 0-5 2.237-5 5s2.237 5 5 5c1.634 0 3.084-0.784 3.997-1.994l6.15 4.453c-0.097 0.331-0.147 0.681-0.147 1.041 0 2.069 1.681 3.75 3.75 3.75s3.75-1.681 3.75-3.75c0-2.069-1.681-3.75-3.75-3.75zM23.5 5.875c0.897 0 1.625 0.728 1.625 1.625s-0.728 1.625-1.625 1.625c-0.897 0-1.625-0.728-1.625-1.625s0.728-1.625 1.625-1.625zM9.75 18.75c-1.516 0-2.75-1.234-2.75-2.75s1.234-2.75 2.75-2.75c1.516 0 2.75 1.234 2.75 2.75s-1.234 2.75-2.75 2.75zM23.5 26.125c-0.897 0-1.625-0.728-1.625-1.625s0.728-1.625 1.625-1.625c0.897 0 1.625 0.728 1.625 1.625s-0.728 1.625-1.625 1.625z"></path>
</symbol>
</defs>
</svg>
